<svg width="19" height="22" viewBox="0 0 19 22" fill="none" xmlns="http://www.w3.org/2000/svg">
<path fill-rule="evenodd" clip-rule="evenodd" d="M8.67113 3.03511C8.3963 4.88856 8.05101 7.77814 9.91914 11.0138C11.7873 14.2495 14.4624 15.3953 16.2049 16.084C16.2651 16.1078 16.3252 16.1314 16.3849 16.1549C16.7455 16.2966 17.0926 16.4331 17.362 16.567C17.5218 16.6464 17.6921 16.7428 17.8397 16.8633C17.9848 16.9818 18.1628 17.168 18.2468 17.4405C18.4377 18.0598 18.014 18.5299 17.7543 18.7661C17.4457 19.0468 16.9792 19.3508 16.3767 19.6986C11.235 22.6671 4.66043 20.9055 1.6919 15.7638C-1.27663 10.6222 0.485028 4.04759 5.62667 1.07906C6.22917 0.731213 6.72572 0.479142 7.12306 0.352232C7.45742 0.245437 8.07647 0.113593 8.51729 0.588515C8.71132 0.79756 8.78356 1.04476 8.81362 1.22967C8.84421 1.41777 8.84252 1.61347 8.8314 1.79161C8.81264 2.09185 8.75727 2.46064 8.69975 2.84376C8.69021 2.90723 8.68062 2.97109 8.67113 3.03511ZM7.31825 1.88294C7.09138 1.98327 6.78522 2.14223 6.37667 2.3781C1.95247 4.93242 0.436621 10.5896 2.99094 15.0138C5.54525 19.438 11.2025 20.9539 15.6267 18.3996C16.0352 18.1637 16.326 17.978 16.5263 17.8317C16.3447 17.7513 16.1209 17.6631 15.8443 17.5542C15.7833 17.5302 15.7198 17.5052 15.6536 17.479C13.8344 16.76 10.752 15.4563 8.6201 11.7638C6.48823 8.07132 6.90043 4.75006 7.18736 2.81509C7.1978 2.74467 7.2079 2.67715 7.21759 2.61235C7.26157 2.31828 7.29715 2.0804 7.31825 1.88294ZM7.71823 1.74801C7.71778 1.74856 7.71097 1.74969 7.69915 1.74975C7.71277 1.74749 7.71868 1.74746 7.71823 1.74801ZM16.8321 17.5684C16.838 17.5582 16.8424 17.5529 16.8431 17.5528C16.8438 17.5527 16.8409 17.5578 16.8321 17.5684Z" fill="white"/>
</svg>
