<svg width="24" height="24" viewBox="0 0 24 24" fill="none" xmlns="http://www.w3.org/2000/svg">
<path d="M12.5 0.75C12.5 0.335786 12.1642 0 11.75 0C11.3358 0 11 0.335786 11 0.75V2.75C11 3.16421 11.3358 3.5 11.75 3.5C12.1642 3.5 12.5 3.16421 12.5 2.75V0.75Z" fill="white"/>
<path d="M4.50216 3.44149C4.20926 3.1486 3.73439 3.1486 3.4415 3.44149C3.1486 3.73439 3.1486 4.20926 3.4415 4.50216L4.85571 5.91637C5.1486 6.20926 5.62348 6.20926 5.91637 5.91637C6.20926 5.62348 6.20926 5.1486 5.91637 4.85571L4.50216 3.44149Z" fill="white"/>
<path d="M20.0585 4.50216C20.3514 4.20926 20.3514 3.73439 20.0585 3.4415C19.7656 3.1486 19.2907 3.1486 18.9978 3.44149L17.5836 4.85571C17.2907 5.1486 17.2907 5.62348 17.5836 5.91637C17.8765 6.20926 18.3514 6.20926 18.6443 5.91637L20.0585 4.50216Z" fill="white"/>
<path fill-rule="evenodd" clip-rule="evenodd" d="M11.75 5C8.02208 5 5 8.02208 5 11.75C5 15.4779 8.02208 18.5 11.75 18.5C15.4779 18.5 18.5 15.4779 18.5 11.75C18.5 8.02208 15.4779 5 11.75 5ZM6.5 11.75C6.5 8.8505 8.8505 6.5 11.75 6.5C14.6495 6.5 17 8.8505 17 11.75C17 14.6495 14.6495 17 11.75 17C8.8505 17 6.5 14.6495 6.5 11.75Z" fill="white"/>
<path d="M0.75 11C0.335786 11 0 11.3358 0 11.75C0 12.1642 0.335786 12.5 0.75 12.5H2.75C3.16421 12.5 3.5 12.1642 3.5 11.75C3.5 11.3358 3.16421 11 2.75 11H0.75Z" fill="white"/>
<path d="M20.75 11C20.3358 11 20 11.3358 20 11.75C20 12.1642 20.3358 12.5 20.75 12.5H22.75C23.1642 12.5 23.5 12.1642 23.5 11.75C23.5 11.3358 23.1642 11 22.75 11H20.75Z" fill="white"/>
<path d="M5.91637 18.6443C6.20926 18.3514 6.20926 17.8765 5.91637 17.5836C5.62348 17.2907 5.1486 17.2907 4.85571 17.5836L3.4415 18.9978C3.1486 19.2907 3.1486 19.7656 3.4415 20.0585C3.73439 20.3514 4.20926 20.3514 4.50216 20.0585L5.91637 18.6443Z" fill="white"/>
<path d="M18.6443 17.5836C18.3514 17.2907 17.8765 17.2907 17.5836 17.5836C17.2907 17.8765 17.2907 18.3514 17.5836 18.6443L18.9978 20.0585C19.2907 20.3514 19.7656 20.3514 20.0585 20.0585C20.3514 19.7656 20.3514 19.2907 20.0585 18.9978L18.6443 17.5836Z" fill="white"/>
<path d="M12.5 20.75C12.5 20.3358 12.1642 20 11.75 20C11.3358 20 11 20.3358 11 20.75V22.75C11 23.1642 11.3358 23.5 11.75 23.5C12.1642 23.5 12.5 23.1642 12.5 22.75V20.75Z" fill="white"/>
</svg>
