<svg width="275" height="110" viewBox="0 0 275 110" fill="none" xmlns="http://www.w3.org/2000/svg">
<path d="M238.234 43.7V51.2683L238.101 51.4119L196.993 95.9822H238.234V104.1H182.833V96.655L182.965 96.5125L223.929 51.8181H182.833V43.7H238.234Z" fill="#9B6EFF" stroke="#9B6EFF"/>
<path d="M147.067 43.7C164.734 43.7001 177.789 55.2238 177.789 71.2527C177.789 87.1768 164.732 98.6998 147.067 98.7C129.402 98.7 116.344 87.177 116.344 71.2527C116.345 55.2237 129.4 43.7 147.067 43.7ZM147.067 51.2771C140.791 51.2771 135.513 53.3611 131.808 56.8699C128.105 60.3771 125.944 65.3353 125.944 71.1472C125.944 77.0672 128.107 82.0516 131.808 85.5574C135.512 89.0649 140.789 91.1228 147.067 91.1228C153.283 91.1227 158.56 89.0653 162.28 85.5564C165.998 82.0496 168.189 77.0651 168.189 71.1472C168.189 59.5685 159.473 51.2773 147.067 51.2771Z" fill="#9B6EFF" stroke="#9B6EFF"/>
<path d="M123.824 42.5836H117.812C111.456 42.5836 106.291 44.4955 102.721 47.8268C99.1537 51.1549 97.132 55.9417 97.132 61.7828V98.0524H86.1222V34.3258H96.5158L96.55 34.7887L97.1359 42.6461C100.471 36.6537 107.635 32.9 116.796 32.9C118.999 32.9 120.92 33.0322 123.427 33.5592L123.824 33.6422V42.5836Z" fill="#9B6EFF" stroke="#9B6EFF"/>
<path d="M12.0811 22.1L12.207 22.4135L36.375 82.5072L37.083 84.2777C38.57 88.0319 40.0053 91.8917 41.582 96.517C43.3836 90.7687 45.4237 85.3941 46.7129 82.3763L70.75 22.4135L70.876 22.1H81.3154L81.042 22.7845L46.625 109.185L46.499 109.5H36.332L36.2061 109.186L1.53613 22.7865L1.26074 22.1H12.0811Z" fill="#9B6EFF" stroke="#9B6EFF"/>
<path d="M260.184 31.668V40.0479C260.186 40.7495 259.959 41.4341 259.536 42.0051C259.112 42.5762 258.513 43.0049 257.822 43.231L255.505 43.9818C252.71 44.8864 249.822 42.8654 249.822 40.0022C249.82 39.2568 250.061 38.5295 250.511 37.9228C250.962 37.3162 251.598 36.8607 252.332 36.6207L257.822 34.8428C258.513 34.6167 259.112 34.188 259.535 33.6172C259.959 33.0464 260.186 32.3622 260.184 31.6607V5.5688C260.183 5.1972 260.31 4.83574 260.546 4.54132C260.781 4.2469 261.112 4.03623 261.486 3.94247L273.189 1.02006C273.285 0.996115 273.385 0.993572 273.482 1.01262C273.579 1.03167 273.67 1.07181 273.748 1.12995C273.826 1.1881 273.89 1.26271 273.933 1.34807C273.977 1.43343 274 1.52727 274 1.6224V7.62093C274.001 7.99354 273.873 8.35587 273.636 8.65061C273.399 8.94535 273.067 9.15567 272.692 9.2483L262.8 11.6504C262.05 11.8356 261.385 12.2563 260.911 12.846C260.437 13.4358 260.181 14.1608 260.184 14.9062V18.997" fill="#9B6EFF"/>
<path d="M260.184 31.668V40.0479C260.186 40.7495 259.959 41.4341 259.536 42.0051C259.112 42.5762 258.513 43.0049 257.822 43.231L255.505 43.9818C252.71 44.8864 249.822 42.8654 249.822 40.0022C249.82 39.2568 250.061 38.5295 250.511 37.9228C250.962 37.3162 251.598 36.8607 252.332 36.6207L257.822 34.8428C258.513 34.6167 259.112 34.188 259.535 33.6172C259.959 33.0464 260.186 32.3622 260.184 31.6607V5.5688C260.183 5.1972 260.31 4.83574 260.546 4.54132C260.781 4.2469 261.112 4.03623 261.486 3.94247L273.189 1.02006C273.285 0.996115 273.385 0.993572 273.482 1.01262C273.579 1.03167 273.67 1.07181 273.748 1.12995C273.826 1.1881 273.89 1.26271 273.933 1.34807C273.977 1.43343 274 1.52727 274 1.6224V7.62093C274.001 7.99354 273.873 8.35587 273.636 8.65061C273.399 8.94535 273.067 9.15567 272.692 9.2483L262.8 11.6504C262.05 11.8356 261.385 12.2563 260.911 12.846C260.437 13.4358 260.181 14.1608 260.184 14.9062V18.997" stroke="#9B6EFF" stroke-linecap="round" stroke-linejoin="round"/>
</svg>
